<svg xmlns="http://www.w3.org/2000/svg" viewBox="0 0 800 450" font-family="sans-serif">
  <rect width="800" height="450" fill="#F7F5F1"/>
  <line x1="400" y1="60" x2="400" y2="400" stroke="#D8D2C7" stroke-width="2"/>
  <text x="200" y="46" text-anchor="middle" font-size="24" font-weight="bold" fill="#B5632F">TECHNICIAN</text>
  <text x="600" y="46" text-anchor="middle" font-size="24" font-weight="bold" fill="#B5632F">ARCHITECT</text>
  <circle cx="200" cy="230" r="26" fill="none" stroke="#2A2A28" stroke-width="3"/>
  <g stroke="#2A2A28" stroke-width="2" fill="#EFEAE1">
    <line x1="136" y1="140" x2="182" y2="212"/><line x1="264" y1="140" x2="218" y2="212"/>
    <line x1="110" y1="230" x2="174" y2="230"/><line x1="290" y1="230" x2="226" y2="230"/>
    <line x1="136" y1="320" x2="182" y2="248"/><line x1="264" y1="320" x2="218" y2="248"/>
    <rect x="90" y="120" width="46" height="32"/><rect x="264" y="120" width="46" height="32"/>
    <rect x="60" y="214" width="46" height="32"/><rect x="294" y="214" width="46" height="32"/>
    <rect x="90" y="308" width="46" height="32"/><rect x="264" y="308" width="46" height="32"/>
  </g>
  <text x="200" y="380" text-anchor="middle" font-size="16" fill="#2A2A28">everything points to you</text>
  <line x1="600" y1="176" x2="600" y2="232" stroke="#2A2A28" stroke-width="3"/>
  <g stroke="#B5632F" stroke-width="3" fill="#F0E4D8">
    <line x1="520" y1="300" x2="600" y2="250"/><line x1="600" y1="250" x2="680" y2="300"/>
    <line x1="520" y1="300" x2="600" y2="340"/><line x1="680" y1="300" x2="600" y2="340"/>
    <circle cx="600" cy="250" r="20"/><circle cx="520" cy="300" r="20"/><circle cx="680" cy="300" r="20"/><circle cx="600" cy="340" r="20"/>
  </g>
  <circle cx="600" cy="150" r="26" fill="#F7F5F1" stroke="#2A2A28" stroke-width="3"/>
  <text x="600" y="395" text-anchor="middle" font-size="16" fill="#2A2A28">you design the system that runs them</text>
</svg>
