<svg xmlns="http://www.w3.org/2000/svg" viewBox="0 0 800 520" font-family="sans-serif">
  <rect width="800" height="520" fill="#F7F5F1"/>
  <text x="400" y="42" text-anchor="middle" font-size="24" font-weight="bold" fill="#B5632F">THE BOTTLENECK</text>
  <g stroke="#2A2A28" stroke-width="2" fill="#EFEAE1">
    <rect x="70" y="430" width="70" height="40"/>
    <rect x="180" y="430" width="70" height="40"/>
    <rect x="290" y="430" width="70" height="40"/>
    <rect x="440" y="430" width="70" height="40"/>
    <rect x="550" y="430" width="70" height="40"/>
    <rect x="660" y="430" width="70" height="40"/>
  </g>
  <g stroke="#2A2A28" stroke-width="2" fill="none">
    <line x1="105" y1="430" x2="380" y2="272"/>
    <line x1="215" y1="430" x2="388" y2="272"/>
    <line x1="325" y1="430" x2="396" y2="272"/>
    <line x1="475" y1="430" x2="404" y2="272"/>
    <line x1="585" y1="430" x2="412" y2="272"/>
    <line x1="695" y1="430" x2="420" y2="272"/>
  </g>
  <path d="M300 250 L500 250 L432 202 L368 202 Z" fill="#F0E4D8" stroke="#2A2A28" stroke-width="2"/>
  <circle cx="400" cy="250" r="26" fill="#F7F5F1" stroke="#B5632F" stroke-width="4"/>
  <text x="400" y="255" text-anchor="middle" font-size="14" fill="#2A2A28">you</text>
  <line x1="400" y1="202" x2="400" y2="120" stroke="#2A2A28" stroke-width="3"/>
  <polygon points="400,100 392,120 408,120" fill="#2A2A28"/>
  <text x="400" y="90" text-anchor="middle" font-size="15" fill="#2A2A28">only a trickle gets through</text>
  <text x="400" y="502" text-anchor="middle" font-size="15" fill="#2A2A28">every task and decision has to pass through one person</text>
</svg>
